<svg width="26" height="26" viewBox="0 0 26 26" fill="none" xmlns="http://www.w3.org/2000/svg">
<path d="M11.4398 15.8595C11.4398 16.5775 10.8578 17.1595 10.1398 17.1595C9.42187 17.1595 8.83984 16.5775 8.83984 15.8595C8.83984 15.1416 9.42187 14.5595 10.1398 14.5595C10.8578 14.5595 11.4398 15.1416 11.4398 15.8595Z" fill="#878787"/>
<path d="M17.1596 15.8595C17.1596 16.5775 16.5775 17.1595 15.8596 17.1595C15.1416 17.1595 14.5596 16.5775 14.5596 15.8595C14.5596 15.1416 15.1416 14.5595 15.8596 14.5595C16.5775 14.5595 17.1596 15.1416 17.1596 15.8595Z" fill="#878787"/>
<path d="M15.0797 4.80991C15.0797 6.03046 14.0902 7.01991 12.8697 7.01991C11.6491 7.01991 10.6597 6.03046 10.6597 4.80991C10.6597 3.58937 11.6491 2.59991 12.8697 2.59991C14.0902 2.59991 15.0797 3.58937 15.0797 4.80991Z" fill="#878787"/>
<path fill-rule="evenodd" clip-rule="evenodd" d="M17.4197 10.3998H8.57971C7.86174 10.3998 7.27971 10.9818 7.27971 11.6998V20.0198C7.27971 20.7378 7.86174 21.3198 8.57971 21.3198H17.4197C18.1377 21.3198 18.7197 20.7378 18.7197 20.0198V11.6998C18.7197 10.9818 18.1377 10.3998 17.4197 10.3998ZM8.57971 8.31979C6.71298 8.31979 5.19971 9.83307 5.19971 11.6998V20.0198C5.19971 21.8865 6.71298 23.3998 8.57971 23.3998H17.4197C19.2864 23.3998 20.7997 21.8865 20.7997 20.0198V11.6998C20.7997 9.83307 19.2864 8.31979 17.4197 8.31979H8.57971Z" fill="#878787"/>
<path fill-rule="evenodd" clip-rule="evenodd" d="M2.59969 19.6298C1.95351 19.6298 1.42969 19.106 1.42969 18.4598L1.42969 13.2598C1.42969 12.6136 1.95351 12.0898 2.59969 12.0898C3.24586 12.0898 3.76969 12.6136 3.76969 13.2598L3.76969 18.4598C3.76969 19.106 3.24586 19.6298 2.59969 19.6298Z" fill="#878787"/>
<path fill-rule="evenodd" clip-rule="evenodd" d="M23.3995 19.6298C22.7533 19.6298 22.2295 19.106 22.2295 18.4598V13.2598C22.2295 12.6136 22.7533 12.0898 23.3995 12.0898C24.0457 12.0898 24.5695 12.6136 24.5695 13.2598V18.4598C24.5695 19.106 24.0457 19.6298 23.3995 19.6298Z" fill="#878787"/>
<path fill-rule="evenodd" clip-rule="evenodd" d="M14.0397 4.42005V8.58005H11.6997V4.42005H14.0397Z" fill="#878787"/>
</svg>
