<svg width="26" height="24" viewBox="0 0 26 24" fill="none" xmlns="http://www.w3.org/2000/svg">
<path fill-rule="evenodd" clip-rule="evenodd" d="M19 17.097C19.5988 17.097 20.0049 16.9741 20.3886 16.7291C20.5666 16.6155 20.7303 16.4814 20.8853 16.3522L20.9444 16.3029C21.0851 16.1855 21.2292 16.0652 21.4031 15.9344L21.4348 15.9104C21.7151 15.698 22.2324 15.306 22.8322 15.7574C22.9922 15.8777 23.1485 16.0105 23.3114 16.151L23.3735 16.2046C23.5137 16.3257 23.6619 16.4539 23.8074 16.5686C24.1307 16.8235 24.5401 17.0969 25 17.097V15.5487C24.8717 15.5487 24.6928 15.468 24.3985 15.2359C24.2752 15.1387 24.149 15.0297 24.0068 14.9068L23.9423 14.8511C23.7779 14.7094 23.5961 14.5544 23.4031 14.4091C22.209 13.5105 21.1465 14.3409 20.8703 14.5567C20.8552 14.5685 20.8425 14.5784 20.8322 14.5861C20.6338 14.7355 20.4671 14.8747 20.3269 14.9917L20.2702 15.0391C20.1141 15.169 19.9999 15.2607 19.8869 15.3328C19.6886 15.4595 19.4601 15.5487 19 15.5487L19 17.097Z" fill="black"/>
<path fill-rule="evenodd" clip-rule="evenodd" d="M19 20.9675C19.5988 20.9675 20.0049 20.8447 20.3886 20.5997C20.5666 20.486 20.7303 20.3519 20.8853 20.2228L20.9444 20.1735C21.0851 20.0561 21.2292 19.9358 21.4031 19.805L21.4348 19.781C21.7151 19.5686 22.2324 19.1765 22.8322 19.6279C22.9922 19.7483 23.1485 19.881 23.3114 20.0216L23.3735 20.0752C23.5137 20.1963 23.6619 20.3244 23.8074 20.4391C24.1307 20.6941 24.5401 20.9675 25 20.9675V19.4193C24.8717 19.4193 24.6928 19.3386 24.3985 19.1065C24.2752 19.0093 24.149 18.9003 24.0068 18.7774L23.9423 18.7217C23.7779 18.5799 23.5961 18.4249 23.4031 18.2797C22.209 17.3811 21.1465 18.2114 20.8703 18.4273C20.8552 18.439 20.8425 18.449 20.8322 18.4567C20.6338 18.606 20.4671 18.7453 20.3269 18.8623L20.2702 18.9096C20.1141 19.0396 19.9999 19.1312 19.8869 19.2034C19.6886 19.3301 19.4601 19.4193 19 19.4193L19 20.9675Z" fill="black"/>
<path fill-rule="evenodd" clip-rule="evenodd" d="M19 17.097C19.5988 17.097 20.0049 16.9741 20.3886 16.7291C20.5666 16.6155 20.7303 16.4814 20.8853 16.3522L20.9444 16.3029C21.0851 16.1855 21.2292 16.0652 21.4031 15.9344L21.4348 15.9104C21.7151 15.698 22.2324 15.306 22.8322 15.7574C22.9922 15.8777 23.1485 16.0105 23.3114 16.151L23.3735 16.2046C23.5137 16.3257 23.6619 16.4539 23.8074 16.5686C24.1307 16.8235 24.5401 17.0969 25 17.097V15.5487C24.8717 15.5487 24.6928 15.468 24.3985 15.2359C24.2752 15.1387 24.149 15.0297 24.0068 14.9068L23.9423 14.8511C23.7779 14.7094 23.5961 14.5544 23.4031 14.4091C22.209 13.5105 21.1465 14.3409 20.8703 14.5567C20.8552 14.5685 20.8425 14.5784 20.8322 14.5861C20.6338 14.7355 20.4671 14.8747 20.3269 14.9917L20.2702 15.0391C20.1141 15.169 19.9999 15.2607 19.8869 15.3328C19.6886 15.4595 19.4601 15.5487 19 15.5487L19 17.097Z" stroke="black" stroke-width="0.3" stroke-linecap="square"/>
<path fill-rule="evenodd" clip-rule="evenodd" d="M19 20.9675C19.5988 20.9675 20.0049 20.8447 20.3886 20.5997C20.5666 20.486 20.7303 20.3519 20.8853 20.2228L20.9444 20.1735C21.0851 20.0561 21.2292 19.9358 21.4031 19.805L21.4348 19.781C21.7151 19.5686 22.2324 19.1765 22.8322 19.6279C22.9922 19.7483 23.1485 19.881 23.3114 20.0216L23.3735 20.0752C23.5137 20.1963 23.6619 20.3244 23.8074 20.4391C24.1307 20.6941 24.5401 20.9675 25 20.9675V19.4193C24.8717 19.4193 24.6928 19.3386 24.3985 19.1065C24.2752 19.0093 24.149 18.9003 24.0068 18.7774L23.9423 18.7217C23.7779 18.5799 23.5961 18.4249 23.4031 18.2797C22.209 17.3811 21.1465 18.2114 20.8703 18.4273C20.8552 18.439 20.8425 18.449 20.8322 18.4567C20.6338 18.606 20.4671 18.7453 20.3269 18.8623L20.2702 18.9096C20.1141 19.0396 19.9999 19.1312 19.8869 19.2034C19.6886 19.3301 19.4601 19.4193 19 19.4193L19 20.9675Z" stroke="black" stroke-width="0.3" stroke-linecap="square"/>
<path fill-rule="evenodd" clip-rule="evenodd" d="M1 17.097C1.59875 17.097 2.0049 16.9741 2.38858 16.7291C2.56659 16.6155 2.73025 16.4814 2.88535 16.3522L2.94443 16.3029C3.0851 16.1855 3.22921 16.0652 3.40308 15.9344L3.43479 15.9104C3.71511 15.698 4.2324 15.306 4.83223 15.7574C4.99215 15.8777 5.14854 16.0105 5.31144 16.151L5.37352 16.2046C5.51369 16.3257 5.6619 16.4539 5.80737 16.5686C6.1307 16.8235 6.54008 17.0969 7 17.097V15.5487C6.87169 15.5487 6.69284 15.468 6.39853 15.2359C6.2752 15.1387 6.14903 15.0297 6.00682 14.9068L5.94225 14.8511C5.77795 14.7094 5.5961 14.5544 5.40308 14.4091C4.20904 13.5105 3.14648 14.3409 2.87028 14.5567C2.85522 14.5685 2.8425 14.5784 2.83222 14.5861C2.63381 14.7355 2.46706 14.8747 2.32694 14.9917L2.27017 15.0391C2.11411 15.169 1.99991 15.2607 1.88691 15.3328C1.68857 15.4595 1.46008 15.5487 1 15.5487L1 17.097Z" fill="black"/>
<path fill-rule="evenodd" clip-rule="evenodd" d="M1 20.9675C1.59875 20.9675 2.0049 20.8447 2.38858 20.5997C2.56659 20.486 2.73025 20.3519 2.88535 20.2228L2.94443 20.1735C3.0851 20.0561 3.22921 19.9358 3.40308 19.805L3.43479 19.781C3.71511 19.5686 4.2324 19.1765 4.83223 19.6279C4.99215 19.7483 5.14854 19.881 5.31144 20.0216L5.37352 20.0752C5.51369 20.1963 5.6619 20.3244 5.80737 20.4391C6.1307 20.6941 6.54008 20.9675 7 20.9675V19.4193C6.87169 19.4193 6.69284 19.3386 6.39853 19.1065C6.2752 19.0093 6.14903 18.9003 6.00682 18.7774L5.94225 18.7217C5.77795 18.5799 5.5961 18.4249 5.40308 18.2797C4.20904 17.3811 3.14648 18.2114 2.87028 18.4273C2.85522 18.439 2.8425 18.449 2.83222 18.4567C2.63381 18.606 2.46706 18.7453 2.32694 18.8623L2.27017 18.9096C2.11411 19.0396 1.99991 19.1312 1.88691 19.2034C1.68857 19.3301 1.46008 19.4193 1 19.4193L1 20.9675Z" fill="black"/>
<path fill-rule="evenodd" clip-rule="evenodd" d="M7 17.097V15.5487C7.46007 15.5487 7.68859 15.4595 7.88693 15.3328C7.99993 15.2607 8.11413 15.169 8.27018 15.0391L8.32696 14.9917C8.46708 14.8747 8.63383 14.7355 8.83224 14.5861C8.84251 14.5784 8.85523 14.5685 8.87029 14.5567C9.14648 14.3409 10.2091 13.5105 11.4031 14.4091C11.5961 14.5544 11.778 14.7094 11.9423 14.8511L12.0068 14.9068C12.149 15.0297 12.2752 15.1387 12.3985 15.2359C12.6929 15.468 12.8717 15.5487 13 15.5487V17.097C12.5401 17.097 12.1307 16.8235 11.8074 16.5686C11.6619 16.4539 11.5137 16.3258 11.3736 16.2046L11.3115 16.151C11.1486 16.0105 10.9922 15.8777 10.8322 15.7574C10.2324 15.306 9.71512 15.698 9.4348 15.9104L9.4031 15.9344C9.22923 16.0652 9.08512 16.1855 8.94445 16.3029L8.88536 16.3522C8.73027 16.4814 8.5666 16.6155 8.38859 16.7291C8.00491 16.9741 7.59875 17.097 7 17.097Z" fill="black"/>
<path fill-rule="evenodd" clip-rule="evenodd" d="M7 20.9675V19.4193C7.46007 19.4193 7.68859 19.3301 7.88693 19.2034C7.99993 19.1312 8.11413 19.0396 8.27018 18.9096L8.32696 18.8623C8.46708 18.7453 8.63383 18.606 8.83224 18.4567C8.84251 18.449 8.85523 18.439 8.87029 18.4273C9.14648 18.2114 10.2091 17.3811 11.4031 18.2797C11.5961 18.4249 11.778 18.5799 11.9423 18.7217L12.0068 18.7774C12.149 18.9003 12.2752 19.0093 12.3985 19.1065C12.6929 19.3386 12.8717 19.4193 13 19.4193V20.9675C12.5401 20.9675 12.1307 20.6941 11.8074 20.4391C11.6619 20.3244 11.5137 20.1964 11.3736 20.0752L11.3115 20.0216C11.1486 19.881 10.9922 19.7483 10.8322 19.6279C10.2324 19.1765 9.71512 19.5686 9.4348 19.781L9.4031 19.805C9.22923 19.9358 9.08512 20.0561 8.94445 20.1735L8.88536 20.2228C8.73027 20.3519 8.5666 20.486 8.38859 20.5997C8.00491 20.8447 7.59875 20.9675 7 20.9675Z" fill="black"/>
<path fill-rule="evenodd" clip-rule="evenodd" d="M13 17.097C13.5988 17.097 14.0049 16.9741 14.3886 16.7291C14.5666 16.6155 14.7303 16.4814 14.8854 16.3522L14.9444 16.3029C15.0851 16.1855 15.2292 16.0652 15.4031 15.9344L15.4348 15.9104C15.7151 15.698 16.2324 15.306 16.8322 15.7574C16.9922 15.8777 17.1486 16.0105 17.3115 16.151L17.3735 16.2046C17.5137 16.3257 17.6619 16.4539 17.8074 16.5686C18.1307 16.8235 18.5401 17.0969 19 17.097V15.5487C18.8717 15.5487 18.6928 15.468 18.3985 15.2359C18.2752 15.1387 18.149 15.0297 18.0068 14.9068L17.9423 14.8511C17.778 14.7094 17.5961 14.5544 17.4031 14.4091C16.2091 13.5105 15.1465 14.3409 14.8703 14.5567C14.8552 14.5685 14.8425 14.5784 14.8322 14.5861C14.6338 14.7355 14.4671 14.8747 14.327 14.9917L14.2702 15.0391C14.1141 15.169 13.9999 15.2607 13.8869 15.3328C13.6886 15.4595 13.4601 15.5487 13 15.5487V17.097Z" fill="black"/>
<path fill-rule="evenodd" clip-rule="evenodd" d="M13 20.9675C13.5988 20.9675 14.0049 20.8447 14.3886 20.5997C14.5666 20.486 14.7303 20.3519 14.8854 20.2228L14.9444 20.1735C15.0851 20.0561 15.2292 19.9358 15.4031 19.805L15.4348 19.781C15.7151 19.5686 16.2324 19.1765 16.8322 19.6279C16.9922 19.7483 17.1486 19.881 17.3115 20.0216L17.3735 20.0752C17.5137 20.1963 17.6619 20.3244 17.8074 20.4391C18.1307 20.6941 18.5401 20.9675 19 20.9675V19.4193C18.8717 19.4193 18.6928 19.3386 18.3985 19.1065C18.2752 19.0093 18.149 18.9003 18.0068 18.7774L17.9423 18.7217C17.778 18.5799 17.5961 18.4249 17.4031 18.2797C16.2091 17.3811 15.1465 18.2114 14.8703 18.4273C14.8552 18.439 14.8425 18.449 14.8322 18.4567C14.6338 18.606 14.4671 18.7453 14.327 18.8623L14.2702 18.9096C14.1141 19.0396 13.9999 19.1312 13.8869 19.2034C13.6886 19.3301 13.4601 19.4193 13 19.4193V20.9675Z" fill="black"/>
<path d="M7 17.097C6.54008 17.0969 6.1307 16.8235 5.80737 16.5686C5.6619 16.4539 5.51369 16.3257 5.37352 16.2046L5.31144 16.151C5.14854 16.0105 4.99215 15.8777 4.83223 15.7574C4.2324 15.306 3.71511 15.698 3.43479 15.9104L3.40308 15.9344C3.22921 16.0652 3.0851 16.1855 2.94443 16.3029L2.88535 16.3522C2.73025 16.4814 2.56659 16.6155 2.38858 16.7291C2.0049 16.9741 1.59875 17.097 1 17.097L1 15.5487C1.46008 15.5487 1.68857 15.4595 1.88691 15.3328C1.99991 15.2607 2.11411 15.169 2.27017 15.0391L2.32694 14.9917C2.46706 14.8747 2.63381 14.7355 2.83222 14.5861C2.8425 14.5784 2.85522 14.5685 2.87028 14.5567C3.14648 14.3409 4.20904 13.5105 5.40308 14.4091C5.5961 14.5544 5.77795 14.7094 5.94225 14.8511L6.00682 14.9068C6.14903 15.0297 6.2752 15.1387 6.39853 15.2359C6.69284 15.468 6.87169 15.5487 7 15.5487M7 17.097V15.5487M7 17.097C7.59875 17.097 8.00491 16.9741 8.38859 16.7291C8.5666 16.6155 8.73027 16.4814 8.88536 16.3522L8.94445 16.3029C9.08512 16.1855 9.22923 16.0652 9.4031 15.9344L9.4348 15.9104C9.71512 15.698 10.2324 15.306 10.8322 15.7574C10.9922 15.8777 11.1486 16.0105 11.3115 16.151L11.3736 16.2046C11.5137 16.3258 11.6619 16.4539 11.8074 16.5686C12.1307 16.8235 12.5401 17.097 13 17.097M7 15.5487C7.46007 15.5487 7.68859 15.4595 7.88693 15.3328C7.99993 15.2607 8.11413 15.169 8.27018 15.0391L8.32696 14.9917C8.46708 14.8747 8.63383 14.7355 8.83224 14.5861C8.84251 14.5784 8.85523 14.5685 8.87029 14.5567C9.14648 14.3409 10.2091 13.5105 11.4031 14.4091C11.5961 14.5544 11.778 14.7094 11.9423 14.8511L12.0068 14.9068C12.149 15.0297 12.2752 15.1387 12.3985 15.2359C12.6929 15.468 12.8717 15.5487 13 15.5487M7 20.9675C6.54008 20.9675 6.1307 20.6941 5.80737 20.4391C5.6619 20.3244 5.51369 20.1963 5.37352 20.0752L5.31144 20.0216C5.14854 19.881 4.99215 19.7483 4.83223 19.6279C4.2324 19.1765 3.71511 19.5686 3.43479 19.781L3.40308 19.805C3.22921 19.9358 3.0851 20.0561 2.94443 20.1735L2.88535 20.2228C2.73025 20.3519 2.56659 20.486 2.38858 20.5997C2.0049 20.8447 1.59875 20.9675 1 20.9675L1 19.4193C1.46008 19.4193 1.68857 19.3301 1.88691 19.2034C1.99991 19.1312 2.11411 19.0396 2.27017 18.9096L2.32694 18.8623C2.46706 18.7453 2.63381 18.606 2.83222 18.4567C2.8425 18.449 2.85522 18.439 2.87028 18.4273C3.14648 18.2114 4.20904 17.3811 5.40308 18.2797C5.5961 18.4249 5.77795 18.5799 5.94225 18.7217L6.00682 18.7774C6.14903 18.9003 6.2752 19.0093 6.39853 19.1065C6.69284 19.3386 6.87169 19.4193 7 19.4193M7 20.9675V19.4193M7 20.9675C7.59875 20.9675 8.00491 20.8447 8.38859 20.5997C8.5666 20.486 8.73027 20.3519 8.88536 20.2228L8.94445 20.1735C9.08512 20.0561 9.22923 19.9358 9.4031 19.805L9.4348 19.781C9.71512 19.5686 10.2324 19.1765 10.8322 19.6279C10.9922 19.7483 11.1486 19.881 11.3115 20.0216L11.3736 20.0752C11.5137 20.1964 11.6619 20.3244 11.8074 20.4391C12.1307 20.6941 12.5401 20.9675 13 20.9675M7 19.4193C7.46007 19.4193 7.68859 19.3301 7.88693 19.2034C7.99993 19.1312 8.11413 19.0396 8.27018 18.9096L8.32696 18.8623C8.46708 18.7453 8.63383 18.606 8.83224 18.4567C8.84251 18.449 8.85523 18.439 8.87029 18.4273C9.14648 18.2114 10.2091 17.3811 11.4031 18.2797C11.5961 18.4249 11.778 18.5799 11.9423 18.7217L12.0068 18.7774C12.149 18.9003 12.2752 19.0093 12.3985 19.1065C12.6929 19.3386 12.8717 19.4193 13 19.4193M13 15.5487V17.097M13 15.5487C13.4601 15.5487 13.6886 15.4595 13.8869 15.3328C13.9999 15.2607 14.1141 15.169 14.2702 15.0391L14.327 14.9917C14.4671 14.8747 14.6338 14.7355 14.8322 14.5861C14.8425 14.5784 14.8552 14.5685 14.8703 14.5567C15.1465 14.3409 16.2091 13.5105 17.4031 14.4091C17.5961 14.5544 17.778 14.7094 17.9423 14.8511L18.0068 14.9068C18.149 15.0297 18.2752 15.1387 18.3985 15.2359C18.6928 15.468 18.8717 15.5487 19 15.5487V17.097C18.5401 17.0969 18.1307 16.8235 17.8074 16.5686C17.6619 16.4539 17.5137 16.3257 17.3735 16.2046L17.3115 16.151C17.1486 16.0105 16.9922 15.8777 16.8322 15.7574C16.2324 15.306 15.7151 15.698 15.4348 15.9104L15.4031 15.9344C15.2292 16.0652 15.0851 16.1855 14.9444 16.3029L14.8854 16.3522C14.7303 16.4814 14.5666 16.6155 14.3886 16.7291C14.0049 16.9741 13.5988 17.097 13 17.097M13 19.4193V20.9675M13 19.4193C13.4601 19.4193 13.6886 19.3301 13.8869 19.2034C13.9999 19.1312 14.1141 19.0396 14.2702 18.9096L14.327 18.8623C14.4671 18.7453 14.6338 18.606 14.8322 18.4567C14.8425 18.449 14.8552 18.439 14.8703 18.4273C15.1465 18.2114 16.2091 17.3811 17.4031 18.2797C17.5961 18.4249 17.778 18.5799 17.9423 18.7217L18.0068 18.7774C18.149 18.9003 18.2752 19.0093 18.3985 19.1065C18.6928 19.3386 18.8717 19.4193 19 19.4193V20.9675C18.5401 20.9675 18.1307 20.6941 17.8074 20.4391C17.6619 20.3244 17.5137 20.1963 17.3735 20.0752L17.3115 20.0216C17.1486 19.881 16.9922 19.7483 16.8322 19.6279C16.2324 19.1765 15.7151 19.5686 15.4348 19.781L15.4031 19.805C15.2292 19.9358 15.0851 20.0561 14.9444 20.1735L14.8854 20.2228C14.7303 20.3519 14.5666 20.486 14.3886 20.5997C14.0049 20.8447 13.5988 20.9675 13 20.9675" stroke="black" stroke-width="0.3" stroke-linecap="square"/>
<path d="M18.0372 15.6971L18.6016 14.75L22.704 7.64429L13.1777 2.14429L9.07528 9.24995L7.02405 12.8028L5.99843 14.5792L5.48563 15.4674" stroke="black" stroke-width="1.8"/>
<rect x="13.6899" y="5.29309" width="2.40087" height="1.6" transform="rotate(30 13.6899 5.29309)" fill="black"/>
<rect x="12.4097" y="7.47437" width="2.40089" height="1.6" transform="rotate(30 12.4097 7.47437)" fill="black"/>
<rect x="17.6689" y="7.44983" width="2.39608" height="1.6" transform="rotate(30 17.6689 7.44983)" fill="black"/>
<rect x="16.4482" y="9.80591" width="2.40331" height="1.6" transform="rotate(30 16.4482 9.80591)" fill="black"/>
</svg>
