<svg width="24" height="24" viewBox="0 0 24 24" fill="none" xmlns="http://www.w3.org/2000/svg">
<path d="M18.9998 9.31997H19.1998V9.11997V5.27997C19.1998 4.30795 18.4118 3.51997 17.4398 3.51997H3.3598C2.38778 3.51997 1.5998 4.30795 1.5998 5.27997V14.24C1.5998 15.212 2.38778 16 3.3598 16H6.5598H6.7598V15.8V14.6V14.4H6.5598H3.3598C3.27144 14.4 3.1998 14.3283 3.1998 14.24V5.27997C3.1998 5.19161 3.27144 5.11997 3.3598 5.11997H17.4398C17.5282 5.11997 17.5998 5.1916 17.5998 5.27997V9.11997V9.31997H17.7998H18.9998Z" fill="black" stroke="black" stroke-width="0.4"/>
<path d="M21.1998 8.44001H7.43977C6.40147 8.44001 5.55977 9.28172 5.55977 10.32V18.96C5.55977 19.9983 6.40147 20.84 7.43977 20.84H21.1998C22.2381 20.84 23.0798 19.9983 23.0798 18.96V10.32C23.0798 9.28172 22.2381 8.44001 21.1998 8.44001ZM7.15977 10.32C7.15977 10.1654 7.28513 10.04 7.43977 10.04H21.1998C21.3544 10.04 21.4798 10.1654 21.4798 10.32V18.96C21.4798 19.1147 21.3544 19.24 21.1998 19.24H7.43977C7.28513 19.24 7.15977 19.1147 7.15977 18.96V10.32Z" fill="black" stroke="black" stroke-width="0.4"/>
</svg>
