<svg width="24" height="24" viewBox="0 0 24 24" fill="none" xmlns="http://www.w3.org/2000/svg">
<path fill-rule="evenodd" clip-rule="evenodd" d="M12 18.3333C15.4978 18.3333 18.3333 15.4978 18.3333 12C18.3333 8.5022 15.4978 5.66667 12 5.66667C8.5022 5.66667 5.66667 8.5022 5.66667 12C5.66667 15.4978 8.5022 18.3333 12 18.3333ZM12 20.3333C16.6024 20.3333 20.3333 16.6024 20.3333 12C20.3333 7.39763 16.6024 3.66667 12 3.66667C7.39763 3.66667 3.66667 7.39763 3.66667 12C3.66667 16.6024 7.39763 20.3333 12 20.3333Z" fill="black"/>
<path fill-rule="evenodd" clip-rule="evenodd" d="M12 7C11.5398 7 11.1667 6.6269 11.1667 6.16667V2.83333C11.1667 2.3731 11.5398 2 12 2C12.4602 2 12.8333 2.3731 12.8333 2.83333V6.16667C12.8333 6.6269 12.4602 7 12 7Z" fill="black"/>
<path fill-rule="evenodd" clip-rule="evenodd" d="M17 12C17 11.5398 17.3731 11.1667 17.8333 11.1667H21.1667C21.6269 11.1667 22 11.5398 22 12C22 12.4602 21.6269 12.8333 21.1667 12.8333H17.8333C17.3731 12.8333 17 12.4602 17 12Z" fill="black"/>
<path fill-rule="evenodd" clip-rule="evenodd" d="M2 12C2 11.5398 2.3731 11.1667 2.83333 11.1667H6.16667C6.6269 11.1667 7 11.5398 7 12C7 12.4602 6.6269 12.8333 6.16667 12.8333H2.83333C2.3731 12.8333 2 12.4602 2 12Z" fill="black"/>
<path fill-rule="evenodd" clip-rule="evenodd" d="M12 22C11.5398 22 11.1667 21.6269 11.1667 21.1667V17.8333C11.1667 17.3731 11.5398 17 12 17C12.4602 17 12.8333 17.3731 12.8333 17.8333V21.1667C12.8333 21.6269 12.4602 22 12 22Z" fill="black"/>
<path d="M14.9167 12C14.9167 13.6108 13.6108 14.9167 12 14.9167C10.3892 14.9167 9.08333 13.6108 9.08333 12C9.08333 10.3892 10.3892 9.08333 12 9.08333C13.6108 9.08333 14.9167 10.3892 14.9167 12Z" fill="black"/>
</svg>
