<svg width="24" height="24" viewBox="0 0 24 24" fill="none" xmlns="http://www.w3.org/2000/svg">
<path fill-rule="evenodd" clip-rule="evenodd" d="M12.0002 4.19995C12.6629 4.19995 13.2002 4.73721 13.2002 5.39995V18.6C13.2002 19.2627 12.6629 19.8 12.0002 19.8C11.3375 19.8 10.8002 19.2627 10.8002 18.6V5.39995C10.8002 4.73721 11.3375 4.19995 12.0002 4.19995Z" fill="black"/>
<path fill-rule="evenodd" clip-rule="evenodd" d="M4.2002 12C4.2002 11.3372 4.73745 10.8 5.4002 10.8L18.6002 10.8C19.2629 10.8 19.8002 11.3372 19.8002 12C19.8002 12.6627 19.2629 13.2 18.6002 13.2L5.4002 13.2C4.73745 13.2 4.2002 12.6627 4.2002 12Z" fill="black"/>
</svg>
