<svg width="24" height="24" viewBox="0 0 24 24" fill="none" xmlns="http://www.w3.org/2000/svg">
<path fill-rule="evenodd" clip-rule="evenodd" d="M18.8972 6.19326L18.8615 6.24398L18.8312 6.29811L16.6357 10.2204L14.4796 6.35201L14.4437 6.28763L14.4002 6.22813C14.0326 5.72511 13.7816 5.20676 13.7219 4.73581C13.6558 4.21516 13.7421 3.68587 13.9728 3.20791C14.2038 2.72962 14.5714 2.31965 15.0377 2.02892C15.5044 1.73801 16.0491 1.57961 16.6088 1.5751C17.1686 1.57059 17.7161 1.72018 18.1879 2.00368C18.6594 2.28701 19.0342 2.69122 19.2733 3.16598C19.5123 3.64038 19.6076 4.16833 19.5504 4.6899C19.4988 5.16124 19.257 5.68238 18.8972 6.19326ZM17.688 10.7972L19.8783 6.88425C20.0175 6.68661 20.1506 6.47566 20.2693 6.25444L20.6255 6.03338V18.8278L17.688 20.6508V10.7972ZM15.688 10.9849V21.0832L8.31299 18.1846V4.98038L13.4713 7.00774L15.688 10.9849ZM20.6927 3.63788L21.4037 3.19666C21.9366 2.86594 22.6255 3.2492 22.6255 3.8764V19.4954C22.6255 19.7722 22.4825 20.0293 22.2473 20.1752L17.688 23.0046L16.688 23.6251L15.688 23.2321L7.31299 19.9405L2.59732 22.8669C2.0644 23.1976 1.37549 22.8144 1.37549 22.1872V6.56814C1.37549 6.2914 1.51851 6.03431 1.75366 5.88839L6.31299 3.05899L7.31299 2.43842L8.31299 2.83145L12.5012 4.47753C12.4881 3.86095 12.6211 3.24773 12.8922 2.68617C13.2233 2.00034 13.747 1.4195 14.4029 1.0106C15.0588 0.601707 15.8201 0.38142 16.5992 0.375138C17.3782 0.368857 18.1432 0.576838 18.806 0.9751C19.4687 1.37336 20.0023 1.94569 20.345 2.62608C20.5074 2.94842 20.6239 3.2888 20.6927 3.63788ZM6.31299 5.41281L3.37549 7.23574V20.0302L6.25841 18.2411L6.31299 18.2073V5.41281ZM17.0505 3.92031H17.3931C17.6141 3.92031 17.7931 3.74122 17.7931 3.52031C17.7931 3.29939 17.6141 3.12031 17.3931 3.12031H15.9431C15.7222 3.12031 15.5431 3.29939 15.5431 3.52031C15.5431 3.74122 15.7222 3.92031 15.9431 3.92031H16.2505V5.14256C16.2505 5.36347 16.4296 5.54255 16.6505 5.54255C16.8714 5.54255 17.0505 5.36347 17.0505 5.14256V3.92031Z" fill="black"/>
</svg>
