<svg width="24" height="24" viewBox="0 0 24 24" fill="none" xmlns="http://www.w3.org/2000/svg">
<path d="M2.00195 11.6749C2.00195 11.6749 3.03837 13.3749 4.00195 13.3749C4.96553 13.3749 6.00195 11.6749 6.00195 11.6749C6.00195 11.6749 7.03886 9.97488 8.00244 9.97488C8.96602 9.97488 10.0024 11.6749 10.0024 11.6749M22.0024 11.6749C22.0024 11.6749 20.966 13.3749 20.0024 13.3749C19.0389 13.3749 18.0024 11.6749 18.0024 11.6749C18.0024 11.6749 16.9655 9.97488 16.002 9.97488C15.0384 9.97488 14.002 11.6749 14.002 11.6749M10.0007 11.6749C10.0007 11.6749 11.0372 13.3749 12.0007 13.3749C12.9643 13.3749 14.0007 11.6749 14.0007 11.6749M7.99976 17.6251C7.99976 17.6251 9.03617 15.9251 9.99975 15.9251C10.9214 15.9251 11.9097 17.4804 11.994 17.6157C11.9969 17.6205 12.0026 17.6205 12.0056 17.6157C12.0898 17.4804 13.0786 15.9251 14.0002 15.9251C14.9638 15.9251 16.0002 17.6251 16.0002 17.6251M20.2265 4.66248C21.3392 6.27539 22.0102 8.18397 22.1652 10.177C22.3201 12.17 21.9531 14.1697 21.1046 15.9548C20.2562 17.7399 18.9594 19.2407 17.3579 20.2912C15.7563 21.3417 13.9124 21.9008 12.0302 21.9068C10.1481 21.9128 8.30108 21.3653 6.69364 20.325C5.08621 19.2847 3.78103 17.7921 2.92257 16.0124C2.0641 14.2327 1.68583 12.2354 1.82962 10.2414C1.9734 8.24749 2.63364 6.33469 3.73725 4.71475" stroke="black" stroke-width="2" stroke-linecap="round"/>
</svg>
